<svg id="Group_12960" data-name="Group 12960" xmlns="http://www.w3.org/2000/svg" width="550.277" height="136.382" viewBox="0 0 550.277 136.382">
  <g id="Group_12958" data-name="Group 12958" transform="translate(186.813 42.28)">
    <path id="Path_20" data-name="Path 20" d="M257.195,66.426c-1.525-3.907-4.164-5.346-9.424-5.346s-7.813,2.63-7.813,5.946c0,2.887,2.8,4.841,9.09,6.708,10.11,3.059,14.522,7.985,14.522,15.961,0,11.977-8.576,19.954-24.374,19.954-10.7,0-17.066-3.059-21.144-9.681l11.549-7.3c2.21,3.65,5.432,5.269,10.7,5.269,6.2,0,8.662-2.8,8.662-6.031,0-2.8-2.382-4.5-9.6-6.965-8.49-2.887-13.845-7.985-13.845-16.132,0-10.358,6.794-19.448,24.374-19.448,9.339,0,15.884,3.478,18.848,9.938l-11.549,7.137Z" transform="translate(-218.05 -49.351)" fill="#1d191b"/>
    <path id="Path_21" data-name="Path 21" d="M324.133,50.35l-2.3,11.72H298.911l-2.039,10.7h20.382l-2.3,11.72H294.576l-2.467,12.74h22.926l-2.3,11.72H275.71l11.378-58.593h37.028Z" transform="translate(-226.31 -49.493)" fill="#1d191b"/>
    <path id="Path_22" data-name="Path 22" d="M374.758,50.35l-1.782,9.176L344.695,97.231h21.821l-2.3,11.72H324.39l1.782-9.176L354.787,62.07H333.471l2.3-11.72h38.982Z" transform="translate(-233.284 -49.493)" fill="#1d191b"/>
    <path id="Path_23" data-name="Path 23" d="M426.208,50.35l-1.782,9.176L396.145,97.231h21.821l-2.3,11.72H375.84l1.782-9.176L406.237,62.07H384.921l2.3-11.72H426.2Z" transform="translate(-240.655 -49.493)" fill="#1d191b"/>
    <path id="Path_24" data-name="Path 24" d="M478.1,50.35l5.183,20.125,13-20.125h16.732L487.957,85.511l-4.584,23.44H469.28l4.584-23.44L462.4,50.35h15.713Z" transform="translate(-253.055 -49.493)" fill="#1d191b"/>
    <path id="Path_25" data-name="Path 25" d="M562.391,84.091c-3.478,17.752-13,25.565-28.024,25.565-13.331,0-21.316-9.6-18.172-25.565l1.782-9.176c3.393-17.666,13-25.565,28.11-25.565,13.331,0,21.23,9.338,18.086,25.565l-1.782,9.176Zm-32.1,0c-1.868,9.6.428,13.845,6.28,13.845s9.853-4.249,11.72-13.845l1.782-9.176c1.868-9.6-.428-13.845-6.289-13.845s-9.853,4.249-11.72,13.845l-1.782,9.176Z" transform="translate(-260.664 -49.35)" fill="#1d191b"/>
    <path id="Path_26" data-name="Path 26" d="M633.306,50.35l-6.794,34.9C623.034,103.168,613.1,109.8,598.574,109.8c-12.4,0-21.573-8.071-18.343-24.46l6.794-34.989h14.093l-6.794,34.989c-1.7,8.576.086,12.74,6.537,12.74s9.767-4.164,11.463-12.74l6.794-34.989H633.3Z" transform="translate(-269.841 -49.493)" fill="#1d191b"/>
  </g>
  <g id="Group_12959" data-name="Group 12959">
    <path id="Path_27" data-name="Path 27" d="M82.749,83.74a41.318,41.318,0,0,1,.625,7.462c0,18.471-12.423,30.44-35.641,30.44-15.181,0-26.336-3.041-35.144-10.726a71.163,71.163,0,0,0,19.285,18.471c-1.234,3.453-4.644,9.3-14.008,13.228-7.754,3.247-3.024,5.415,6.854,5.74,13.185.437,20.785-5.663,23.449-8.285.6-.591,1.165-1.217,1.688-1.842a90.474,90.474,0,0,0,29.926,5.012A91.942,91.942,0,0,0,98.6,141.313V114.249l-15.85-30.5Z" transform="translate(-1.804 -11.996)" fill="#4582c3"/>
    <path id="Path_28" data-name="Path 28" d="M43.865,95.294c9.467,0,13.16-3.992,13.16-8.867,0-5.912-4.138-8.867-19.225-13.742C17.974,66.319,9,57.366,8.276,42.21A56.444,56.444,0,0,0,6.537,98L23.458,86.144C28.487,92.5,34.7,95.3,43.865,95.3Z" transform="translate(0 -6.047)" fill="#4582c3"/>
    <path id="Path_29" data-name="Path 29" d="M176.251,72.973a56.239,56.239,0,0,0-4.344-21.633L141.63,109.6v17.914C162.509,115.741,176.251,95.711,176.251,72.973Z" transform="translate(-20.289 -7.355)" fill="#4582c3"/>
    <path id="Path_30" data-name="Path 30" d="M86.313,21.419,68.125,34.424c-3.992-6.794-9.022-9.313-18.189-9.313-8.13,0-11.686,3.693-11.686,8.867,0,6.057,5.32,9.458,18.189,13.151C67.148,50.2,74.644,53.718,79.545,58.5L70.481,41.055H98.727l15.824,35.024,15.824-35.024H155.8C144.238,16.989,116.214,0,83.46,0A90.448,90.448,0,0,0,53.937,4.875c14.282.9,25.788,6.331,32.376,16.552Z" transform="translate(-5.48)" fill="#4582c3"/>
  </g>
</svg>
