<svg xmlns="http://www.w3.org/2000/svg" id="Group_3" data-name="Group 3" width="23" height="19.462" viewBox="0 0 23 19.462">
  <path id="Vector_Stroke_" data-name="Vector (Stroke)" d="M3.1,1.769A1.327,1.327,0,0,0,1.769,3.1V16.365A1.327,1.327,0,0,0,3.1,17.692h8.846a1.327,1.327,0,0,0,1.327-1.327V14.154a.885.885,0,1,1,1.769,0v2.212a3.1,3.1,0,0,1-3.1,3.1H3.1a3.1,3.1,0,0,1-3.1-3.1V3.1A3.1,3.1,0,0,1,3.1,0h8.4a3.888,3.888,0,0,1,2.331.836A2.924,2.924,0,0,1,15.038,3.1V5.308a.885.885,0,1,1-1.769,0V3.1a1.178,1.178,0,0,0-.53-.867A2.125,2.125,0,0,0,11.5,1.769Z" fill="#40BFC5"/>
  <path id="Vector_Stroke_2" data-name="Vector (Stroke)" d="M.259.259a.885.885,0,0,1,1.251,0L5.933,4.682a.885.885,0,0,1,0,1.251L1.51,10.356A.885.885,0,0,1,.259,9.105l3.8-3.8-3.8-3.8A.885.885,0,0,1,.259.259Z" transform="translate(16.808 4.423)" fill="#40BFC5"/>
  <path id="Vector_Stroke_3" data-name="Vector (Stroke)" d="M0,.885A.885.885,0,0,1,.885,0H15.038a.885.885,0,0,1,0,1.769H.885A.885.885,0,0,1,0,.885Z" transform="translate(6.192 8.846)" fill="#40BFC5" class="__web-inspector-hide-shortcut__"/>
</svg>
