<svg xmlns="http://www.w3.org/2000/svg" width="21.6" height="36" viewBox="0 0 21.6 36">
  <path id="mobile-phone" d="M13.05,32.4a2.257,2.257,0,0,0-2.25-2.25,2.25,2.25,0,1,0,1.589,3.839A2.167,2.167,0,0,0,13.05,32.4Zm5.85-4.5V8.1a.912.912,0,0,0-.9-.9H3.6a.912.912,0,0,0-.9.9V27.9a.912.912,0,0,0,.9.9H18a.912.912,0,0,0,.9-.9ZM13.5,4.05a.4.4,0,0,0-.45-.45H8.55a.4.4,0,0,0-.45.45.4.4,0,0,0,.45.45h4.5A.4.4,0,0,0,13.5,4.05Zm8.1-.45V32.4A3.651,3.651,0,0,1,18,36H3.6a3.457,3.457,0,0,1-2.531-1.069A3.465,3.465,0,0,1,0,32.4V3.6A3.457,3.457,0,0,1,1.069,1.069,3.465,3.465,0,0,1,3.6,0H18a3.457,3.457,0,0,1,2.531,1.069A3.465,3.465,0,0,1,21.6,3.6Z"/>
</svg>
