<svg id="Group_2" data-name="Group 2" xmlns="http://www.w3.org/2000/svg" width="22" height="22" viewBox="0 0 22 22">
  <path id="Vector_Stroke_" data-name="Vector (Stroke)" d="M0,11A11,11,0,1,1,11,22,11,11,0,0,1,0,11ZM11,1.692A9.308,9.308,0,1,0,20.308,11,9.31,9.31,0,0,0,11,1.692Z" fill="#fff"/>
  <path id="Vector" d="M11.7,9.784c-.864-1.023-1.473-1.453-1.473-4.273A3.762,3.762,0,0,0,7.74,1.562.6.6,0,0,1,7.4,1.208,1.6,1.6,0,0,0,5.924,0,1.6,1.6,0,0,0,4.443,1.209a.6.6,0,0,1-.335.353A3.762,3.762,0,0,0,1.623,5.511c0,2.82-.61,3.25-1.474,4.273A.77.77,0,0,0,.741,11H11.106A.773.773,0,0,0,11.7,9.784Z" transform="translate(5.076 4.231)" fill="#fff"/>
  <path id="Vector-2" data-name="Vector" d="M.213,0A.212.212,0,0,0,0,.234c.119.99,1,1.459,2.1,1.459S4.068,1.208,4.2.237A.212.212,0,0,0,3.99,0Z" transform="translate(8.896 16.077)" fill="#fff"/>
</svg>
