<svg xmlns="http://www.w3.org/2000/svg" width="21.29" height="20" viewBox="0 0 23.29 22">
  <g id="Group_13256" data-name="Group 13256" transform="translate(-0.355 -1)">
    <path id="Path_11360" data-name="Path 11360" d="M16.719,19.752l-.64-5.124A3,3,0,0,0,13.1,12H10.9a3,3,0,0,0-2.976,2.628L7.28,19.752A2,2,0,0,0,9.266,22h5.468a2,2,0,0,0,1.985-2.248Z" fill="none" stroke="#40bfc5" stroke-linecap="round" stroke-linejoin="round" stroke-width="2"/>
    <circle id="Ellipse_365" data-name="Ellipse 365" cx="3" cy="3" r="3" transform="translate(9 2)" fill="none" stroke="#40bfc5" stroke-linecap="round" stroke-linejoin="round" stroke-width="2"/>
    <circle id="Ellipse_366" data-name="Ellipse 366" cx="2" cy="2" r="2" transform="translate(2 7)" fill="none" stroke="#40bfc5" stroke-linecap="round" stroke-linejoin="round" stroke-width="2"/>
    <circle id="Ellipse_367" data-name="Ellipse 367" cx="2" cy="2" r="2" transform="translate(18 7)" fill="none" stroke="#40bfc5" stroke-linecap="round" stroke-linejoin="round" stroke-width="2"/>
    <path id="Path_11361" data-name="Path 11361" d="M4,14H3.694a2,2,0,0,0-1.973,1.671l-.333,2A2,2,0,0,0,3.361,20H7" fill="none" stroke="#40bfc5" stroke-linecap="round" stroke-linejoin="round" stroke-width="2"/>
    <path id="Path_11362" data-name="Path 11362" d="M20,14h.306a2,2,0,0,1,1.973,1.671l.333,2A2,2,0,0,1,20.639,20H17" fill="none" stroke="#40bfc5" stroke-linecap="round" stroke-linejoin="round" stroke-width="2"/>
  </g>
</svg>
