<svg id="person-lines-fill" xmlns="http://www.w3.org/2000/svg" width="36" height="27" viewBox="0 0 36 27">
  <path id="Path_12124" data-name="Path 12124" d="M2.25,31.5A2.2,2.2,0,0,1,0,29.25c0-2.25,2.25-9,13.5-9S27,27,27,29.25a2.2,2.2,0,0,1-2.25,2.25ZM13.5,18a6.75,6.75,0,1,0-6.75-6.75A6.75,6.75,0,0,0,13.5,18Zm15.75,3.375a1.125,1.125,0,0,1,1.125-1.125h4.5a1.125,1.125,0,0,1,0,2.25h-4.5A1.125,1.125,0,0,1,29.25,21.375Zm-4.5-6.75A1.125,1.125,0,0,1,25.875,13.5h9a1.125,1.125,0,0,1,0,2.25h-9A1.125,1.125,0,0,1,24.75,14.625Zm0-6.75A1.125,1.125,0,0,1,25.875,6.75h9a1.125,1.125,0,0,1,0,2.25h-9A1.125,1.125,0,0,1,24.75,7.875Zm4.5,20.25A1.125,1.125,0,0,1,30.375,27h4.5a1.125,1.125,0,0,1,0,2.25h-4.5A1.125,1.125,0,0,1,29.25,28.125Z" transform="translate(0 -4.5)" fill="#191919" fill-rule="evenodd"/>
</svg>
