<svg id="Group_1" data-name="Group 1" xmlns="http://www.w3.org/2000/svg" width="22" height="22.001" viewBox="0 0 22 22.001">
  <path id="Vector" d="M11.154,0A11,11,0,1,0,22,10.848,11.015,11.015,0,0,0,11.154,0Zm6.685,17.306a.212.212,0,0,1-.325-.017A6.572,6.572,0,0,0,15.8,15.725a8.98,8.98,0,0,0-4.8-1.34,8.98,8.98,0,0,0-4.8,1.34,6.57,6.57,0,0,0-1.711,1.564.212.212,0,0,1-.325.017,9.271,9.271,0,0,1-2.469-6.147A9.308,9.308,0,1,1,20.308,11,9.271,9.271,0,0,1,17.839,17.307Z" fill="#fff"/>
  <path id="Vector-2" data-name="Vector" d="M3.6,0A3.6,3.6,0,0,0,.94,1.1,3.583,3.583,0,0,0,.011,3.847,3.9,3.9,0,0,0,3.6,7.615,3.905,3.905,0,0,0,7.18,3.848a3.552,3.552,0,0,0-.935-2.74A3.591,3.591,0,0,0,3.6,0Z" transform="translate(7.404 5.077)" fill="#fff"/>
</svg>
