<svg id="Group_29189" data-name="Group 29189" xmlns="http://www.w3.org/2000/svg" width="43.457" height="38" viewBox="0 0 43.457 38">
  <path id="Path_92" data-name="Path 92" d="M116.726,119.83a11.379,11.379,0,0,1,.175,2.079c0,5.146-3.461,8.483-9.929,8.483-4.23,0-7.338-.847-9.792-2.988a19.813,19.813,0,0,0,5.373,5.146,6.5,6.5,0,0,1-3.9,3.685c-2.162.906-.842,1.508,1.91,1.6a8.732,8.732,0,0,0,6.534-2.309c.168-.165.324-.339.47-.514a25.234,25.234,0,0,0,8.339,1.4,25.671,25.671,0,0,0,5.243-.537v-7.54l-4.417-8.5Z" transform="translate(-94.171 -99.841)"/>
  <path id="Path_93" data-name="Path 93" d="M91.363,75.2c2.637,0,3.667-1.111,3.667-2.471,0-1.646-1.154-2.471-5.356-3.828-5.525-1.775-8.024-4.267-8.226-8.491a15.711,15.711,0,0,0-.484,15.542l4.714-3.3A6.586,6.586,0,0,0,91.363,75.2Z" transform="translate(-79.14 -50.333)"/>
  <path id="Path_94" data-name="Path 94" d="M291.475,79.5a15.675,15.675,0,0,0-1.209-6.027L281.83,89.7v4.991C287.647,91.413,291.475,85.831,291.475,79.5Z" transform="translate(-248.018 -61.214)"/>
  <path id="Path_95" data-name="Path 95" d="M147.28,5.969l-5.068,3.623C141.1,7.7,139.7,7,137.145,7c-2.265,0-3.255,1.029-3.255,2.471,0,1.688,1.483,2.636,5.068,3.665,2.984.856,5.073,1.837,6.437,3.168l-2.526-4.859h7.869l4.409,9.759,4.409-9.759h7.083C163.421,4.734,155.611,0,146.486,0a25.258,25.258,0,0,0-8.227,1.358C142.237,1.608,145.444,3.121,147.28,5.969Z" transform="translate(-124.757)"/>
</svg>
